<svg width="20" height="20" viewBox="0 0 20 20" fill="none" xmlns="http://www.w3.org/2000/svg">
<path d="M10 0C15.5207 0 20 4.47926 20 9.99998C20 15.5207 15.5207 20 10 20C4.47927 20 1.70847e-05 15.5207 1.70847e-05 9.99998C-0.0100941 4.47926 4.46916 0 10 0Z" fill="#337FFF"/>
<path d="M12.3355 10.627L12.6187 8.81716H10.8593V7.64425C10.8593 7.1488 11.102 6.66346 11.8907 6.66346H12.6995V5.11645C12.2243 5.04567 11.7491 5.00523 11.2739 4.99512C9.82796 4.99512 8.88763 5.86469 8.88763 7.43193V8.81716H7.29004V10.627H8.88763V15.0052H10.8593V10.627H12.3355Z" fill="white"/>
</svg>
