<svg width="146" height="29" viewBox="0 0 146 29" fill="none" xmlns="http://www.w3.org/2000/svg">
<path d="M46.9218 0L0.687256 2.05846L14.1883 10.1409L46.9218 0Z" fill="#E32A2B"/>
<path d="M46.9218 0L19.5363 8.48608L16.5596 29L46.9218 0Z" fill="#1D1D1E"/>
<path d="M62.451 14.1864V3.23828H58.9294V14.1864V17.6374V17.6979H69.0401V14.1864H62.451Z" fill="#1D1D1E"/>
<path d="M81.0578 3.28808L77.5463 3.25781L74.9732 9.0901V9.10019H74.2467V9.0901L71.6736 3.30826L68.1621 3.33854L72.8239 12.6218V17.7679H76.3455V12.6218L81.0578 3.28808Z" fill="#1D1D1E"/>
<path d="M119.644 3.24837H115.638V3.23828H112.126V3.24837H108.12V6.75985H112.126V17.6979H115.638V6.75985H119.644V3.24837Z" fill="#1D1D1E"/>
<path d="M57.3854 6.74976V3.23828H47.2849V3.28873V6.74976V9.72645V12.6022V17.6979H50.7964V12.6022H56.6589V9.72645H50.7964V6.74976H57.3854Z" fill="#1D1D1E"/>
<path d="M145.95 9.09075V3.23828H142.438V9.09075H137.938V3.23828H134.426V9.09075V12.6022V17.6979H137.938V12.6022H142.438V17.6979H145.95V12.6022V9.09075Z" fill="#1D1D1E"/>
<path d="M88.1816 6.5281C88.2623 6.51801 88.3531 6.49783 88.4339 6.48774C88.5852 6.46756 88.7366 6.45747 88.8879 6.45747C89.9676 6.48774 90.5932 6.59874 91.9857 7.64815L93.7415 5.76123C93.7415 5.76123 92.2985 3.49087 88.5045 3.31934C84.4885 3.31934 81.2292 6.54829 81.2292 10.5239C81.2292 11.6944 81.5118 12.8044 82.0163 13.7731C81.4916 6.82073 87.5055 6.5382 88.1816 6.5281Z" fill="#1D1D1E"/>
<path d="M88.696 14.7713C86.799 14.8116 84.7809 12.8339 84.7809 10.6543C84.7809 8.61607 86.2238 6.88051 88.1511 6.52734C87.3438 6.59798 81.5519 7.34467 83.126 15.3767C84.458 16.8297 86.3752 17.7379 88.5043 17.7379C91.0067 17.8488 92.8129 16.3353 92.8129 16.3353L91.592 14.0347C91.592 14.0246 90.0784 14.8419 88.696 14.7713Z" fill="#E32A2B"/>
<path d="M105.457 17.7376H108.968L103.418 3.28809H99.2508L93.4387 17.7376H96.9502L98.151 14.882H104.246L105.457 17.7376ZM99.382 11.9659L101.208 7.62699L103.035 11.9659H99.382Z" fill="#1D1D1E"/>
<path d="M130.551 13.9947C130.551 13.9947 129.048 14.8121 127.666 14.7414C125.779 14.7818 123.761 12.8141 123.761 10.6346C123.761 8.50551 125.335 6.70941 127.403 6.47733C127.555 6.45715 127.696 6.45715 127.847 6.45715C128.927 6.48742 129.542 6.59841 130.945 7.64782L132.691 5.7609C132.691 5.7609 130.945 3.3291 127.474 3.3291C123.468 3.3291 120.219 6.54796 120.219 10.5135C120.219 14.4791 123.468 17.6979 127.474 17.6979C129.966 17.8089 131.772 16.2954 131.772 16.2954L130.551 13.9947Z" fill="#1D1D1E"/>
<path d="M48.96 19.7764L50.7561 23.9841H50.302L48.96 20.7955L47.6079 23.9841H47.1538L48.96 19.7764Z" fill="#969696"/>
<path d="M56.1947 24.0547C55.892 24.0547 55.6195 24.0043 55.3572 23.8933C55.1049 23.7823 54.8829 23.641 54.7013 23.4493C54.5197 23.2576 54.3784 23.0457 54.2674 22.7934C54.1665 22.5412 54.106 22.2788 54.106 21.9963C54.106 21.7137 54.1564 21.4413 54.2674 21.189C54.3784 20.9368 54.5197 20.7148 54.7114 20.5332C54.9031 20.3515 55.115 20.2002 55.3673 20.0892C55.6195 19.9782 55.892 19.9277 56.1846 19.9277C56.4772 19.9277 56.7396 19.9782 56.9817 20.0791C57.2239 20.18 57.4358 20.3213 57.6276 20.4928L57.3753 20.7854C57.2239 20.6442 57.0423 20.5231 56.8506 20.4323C56.6488 20.3414 56.4268 20.291 56.1846 20.291C55.9424 20.291 55.7104 20.3414 55.5085 20.4323C55.3067 20.5231 55.1352 20.6542 54.9838 20.8056C54.8426 20.9671 54.7215 21.1487 54.6408 21.3505C54.56 21.5624 54.5197 21.7743 54.5197 22.0064C54.5197 22.2385 54.56 22.4604 54.6408 22.6623C54.7215 22.8641 54.8426 23.0457 54.9838 23.2071C55.1352 23.3686 55.3067 23.4897 55.5085 23.5805C55.7104 23.6713 55.9323 23.7217 56.1745 23.7217C56.4268 23.7217 56.6488 23.6814 56.8405 23.5805C57.0322 23.4897 57.2138 23.3787 57.3652 23.2475L57.5973 23.53C57.4056 23.7016 57.1936 23.8428 56.9515 23.9336C56.7396 24.0043 56.4772 24.0547 56.1947 24.0547Z" fill="#969696"/>
<path d="M61.2602 19.9688H62.693C62.8242 19.9688 62.9453 19.9788 63.0664 19.999C63.1874 20.0192 63.2985 20.0596 63.3994 20.11C63.5911 20.2109 63.7424 20.3522 63.8635 20.5338C63.9846 20.7255 64.0451 20.9475 64.0451 21.1998C64.0451 21.3814 64.0149 21.553 63.9543 21.6942C63.8938 21.8355 63.8232 21.9768 63.7323 22.0777C63.6415 22.1887 63.5406 22.2694 63.4296 22.3299C63.3186 22.3905 63.1975 22.4207 63.0865 22.4409C63.2581 22.7033 63.4296 22.9656 63.5911 23.2179C63.7525 23.4802 63.9241 23.7325 64.0855 23.9948H63.581C63.4195 23.7426 63.2581 23.4903 63.0966 23.2381C62.9352 22.9858 62.7737 22.7335 62.6123 22.4712H61.6638V23.9948H61.24V19.9688H61.2602ZM62.6829 22.1079C62.7636 22.1079 62.8444 22.1079 62.915 22.0978C62.9856 22.0978 63.0664 22.0777 63.1471 22.0575C63.2177 22.0373 63.2783 21.9969 63.3388 21.9465C63.3993 21.896 63.4498 21.8254 63.4902 21.7548C63.5305 21.6841 63.5608 21.5933 63.5911 21.5025C63.6112 21.4117 63.6314 21.3108 63.6314 21.2099C63.6314 21.0182 63.5911 20.8668 63.5204 20.7356C63.4498 20.6044 63.3489 20.5035 63.2278 20.4329C63.1572 20.3926 63.0765 20.3623 62.9857 20.3522C62.8948 20.332 62.7939 20.332 62.693 20.332H61.6739V22.1079H62.6829Z" fill="#969696"/>
<path d="M69.6253 24.044C69.3326 24.044 69.0602 23.9935 68.8079 23.8926C68.5557 23.7917 68.3337 23.6404 68.1521 23.4587C67.9603 23.2771 67.8191 23.0551 67.7081 22.8029C67.5971 22.5506 67.5466 22.2782 67.5466 21.9855C67.5466 21.703 67.5971 21.4306 67.7081 21.1783C67.8191 20.926 67.9704 20.704 68.1521 20.5224C68.3438 20.3307 68.5557 20.1894 68.8079 20.0784C69.0602 19.9674 69.3226 19.917 69.6051 19.917C69.9078 19.917 70.1802 19.9674 70.4325 20.0784C70.6848 20.1793 70.9068 20.3307 71.0884 20.5123C71.27 20.694 71.4214 20.9159 71.5223 21.1682C71.6232 21.4205 71.6837 21.6929 71.6837 21.9855C71.6837 22.2883 71.6333 22.5607 71.5223 22.813C71.4113 23.0652 71.27 23.2872 71.0884 23.4688C70.9068 23.6505 70.6848 23.8018 70.4325 23.9027C70.1802 23.9935 69.9078 24.044 69.6253 24.044ZM69.6152 23.6807C69.8674 23.6807 70.0894 23.6404 70.3013 23.5496C70.5031 23.4587 70.6747 23.3377 70.826 23.1863C70.9673 23.0349 71.0783 22.8533 71.159 22.6515C71.2397 22.4497 71.2801 22.2277 71.2801 21.9956C71.2801 21.7535 71.2397 21.5214 71.159 21.3196C71.0783 21.1077 70.9673 20.926 70.826 20.7747C70.6848 20.6233 70.5132 20.5022 70.3013 20.4114C70.0995 20.3206 69.8674 20.2802 69.6253 20.2802C69.3831 20.2802 69.1611 20.3307 68.9492 20.4215C68.7474 20.5123 68.5759 20.6435 68.4245 20.7949C68.2832 20.9563 68.1621 21.1379 68.0814 21.3397C68.0007 21.5516 67.9603 21.7635 67.9603 21.9956C67.9603 22.2277 68.0007 22.4497 68.0814 22.6515C68.1621 22.8533 68.2731 23.0349 68.4245 23.1964C68.5658 23.3478 68.7474 23.4688 68.9492 23.5596C69.151 23.6404 69.373 23.6807 69.6152 23.6807Z" fill="#969696"/>
<path d="M76.507 24.044C76.2446 24.044 76.0025 23.9935 75.7704 23.8926C75.5383 23.7917 75.3466 23.6404 75.175 23.4285L75.4778 23.1762C75.5988 23.3276 75.7401 23.4587 75.9217 23.5496C76.1034 23.6404 76.2951 23.6908 76.5171 23.6908C76.6483 23.6908 76.7592 23.6706 76.8702 23.6303C76.9711 23.5899 77.062 23.5294 77.1427 23.4587C77.2133 23.3881 77.2739 23.3074 77.3142 23.2065C77.3546 23.1056 77.3748 23.0047 77.3748 22.8937C77.3748 22.7928 77.3546 22.702 77.3243 22.6313C77.2941 22.5607 77.2335 22.4901 77.173 22.4295C77.1124 22.369 77.0418 22.3185 76.951 22.2782C76.8703 22.2378 76.7794 22.1974 76.6886 22.1571L76.2144 21.9754C76.1034 21.9351 75.9924 21.8846 75.8915 21.8241C75.7906 21.7635 75.6998 21.6929 75.619 21.6122C75.5383 21.5315 75.4778 21.4306 75.4374 21.3297C75.387 21.2187 75.3668 21.0976 75.3668 20.9462C75.3668 20.805 75.397 20.6637 75.4576 20.5426C75.5181 20.4215 75.5988 20.3105 75.7098 20.2197C75.8107 20.1289 75.9419 20.0583 76.0832 19.9977C76.2245 19.9473 76.3859 19.917 76.5474 19.917C76.7895 19.917 76.9813 19.9473 77.1427 20.0179C77.3041 20.0885 77.4555 20.1793 77.5968 20.3004L77.3445 20.5931C77.2335 20.4921 77.1225 20.4114 76.9913 20.361C76.8601 20.3105 76.7189 20.2802 76.5474 20.2802C76.4364 20.2802 76.3456 20.3004 76.2547 20.3307C76.1639 20.361 76.0832 20.4114 76.0226 20.472C75.952 20.5325 75.9016 20.6031 75.8612 20.6839C75.8208 20.7646 75.8007 20.8554 75.8007 20.9462C75.8007 21.037 75.8209 21.1178 75.8511 21.1783C75.8814 21.2489 75.9318 21.3095 75.9823 21.3599C76.0327 21.4104 76.1034 21.4608 76.174 21.5012C76.2446 21.5416 76.3254 21.5819 76.4162 21.6122L76.8702 21.7938C76.9913 21.8443 77.1023 21.8947 77.2133 21.9553C77.3243 22.0158 77.4252 22.0864 77.5059 22.1773C77.5968 22.2681 77.6573 22.369 77.7078 22.48C77.7582 22.6011 77.7885 22.7423 77.7885 22.8937C77.7885 23.0551 77.7582 23.2065 77.6876 23.3478C77.6169 23.489 77.5261 23.6101 77.4151 23.7211C77.3041 23.822 77.1629 23.9027 77.0115 23.9633C76.8501 24.0137 76.6886 24.044 76.507 24.044Z" fill="#969696"/>
<path d="M82.5614 24.044C82.299 24.044 82.0568 23.9935 81.8348 23.8926C81.6028 23.7917 81.411 23.6404 81.2395 23.4285L81.5422 23.1762C81.6633 23.3276 81.8046 23.4587 81.9862 23.5496C82.1678 23.6404 82.3595 23.6908 82.5815 23.6908C82.7127 23.6908 82.8237 23.6706 82.9347 23.6303C83.0356 23.5899 83.1264 23.5294 83.2071 23.4587C83.2778 23.3881 83.3383 23.3074 83.3787 23.2065C83.419 23.1056 83.4392 23.0047 83.4392 22.8937C83.4392 22.7928 83.419 22.702 83.3787 22.6313C83.3383 22.5607 83.298 22.4901 83.2273 22.4295C83.1668 22.369 83.0961 22.3185 83.0053 22.2782C82.9246 22.2378 82.8338 22.1974 82.743 22.1571L82.2687 21.9754C82.1577 21.9351 82.0467 21.8846 81.9458 21.8241C81.8449 21.7635 81.7541 21.6929 81.6734 21.6122C81.5927 21.5315 81.5321 21.4306 81.4918 21.3297C81.4413 21.2187 81.4211 21.0976 81.4211 20.9462C81.4211 20.805 81.4514 20.6637 81.5119 20.5426C81.5725 20.4215 81.6532 20.3105 81.7642 20.2197C81.8651 20.1289 81.9963 20.0583 82.1375 19.9977C82.2788 19.9473 82.4403 19.917 82.6017 19.917C82.8439 19.917 83.0356 19.9473 83.1971 20.0179C83.3585 20.0885 83.5098 20.1793 83.6511 20.3004L83.3988 20.5931C83.2879 20.4921 83.1768 20.4114 83.0457 20.361C82.9145 20.3105 82.7733 20.2802 82.6017 20.2802C82.4907 20.2802 82.3999 20.3004 82.3091 20.3307C82.2183 20.361 82.1375 20.4114 82.077 20.472C82.0064 20.5325 81.9559 20.6031 81.9155 20.6839C81.8752 20.7646 81.855 20.8554 81.855 20.9462C81.855 21.037 81.8752 21.1178 81.9055 21.1783C81.9357 21.2489 81.9862 21.3095 82.0366 21.3599C82.0871 21.4104 82.1577 21.4608 82.2283 21.5012C82.299 21.5416 82.3797 21.5819 82.4705 21.6122L82.9246 21.7938C83.0457 21.8443 83.1567 21.8947 83.2677 21.9553C83.3787 22.0158 83.4796 22.0864 83.5603 22.1773C83.6511 22.2681 83.7117 22.369 83.7621 22.48C83.8126 22.6011 83.8428 22.7423 83.8428 22.8937C83.8428 23.0551 83.8126 23.2065 83.7419 23.3478C83.6713 23.489 83.5906 23.6101 83.4695 23.7211C83.3585 23.822 83.2172 23.9027 83.0659 23.9633C82.9044 24.0137 82.743 24.044 82.5614 24.044Z" fill="#969696"/>
<path d="M92.8838 20.3219H91.8142V19.9688H94.3671V20.3219H93.3076V23.9848H92.8838V20.3219Z" fill="#969696"/>
<path d="M97.8787 19.9688H98.3024V21.6841H100.462V19.9688H100.886V23.9848H100.462V22.0474H98.3024V23.9848H97.8787V19.9688Z" fill="#969696"/>
<path d="M104.669 19.9688H107.142V20.3219H105.083V21.7447H107.041V22.1079H105.083V23.6316H107.142V23.9848H104.669V19.9688Z" fill="#969696"/>
<path d="M117.353 24.0547C117.05 24.0547 116.778 24.0043 116.516 23.8933C116.263 23.7823 116.041 23.641 115.86 23.4493C115.678 23.2576 115.527 23.0457 115.426 22.7934C115.325 22.5412 115.264 22.2788 115.264 21.9963C115.264 21.7137 115.315 21.4413 115.426 21.189C115.537 20.9368 115.678 20.7148 115.87 20.5332C116.062 20.3414 116.273 20.2002 116.526 20.0892C116.778 19.9782 117.05 19.9277 117.343 19.9277C117.636 19.9277 117.898 19.9782 118.14 20.0791C118.382 20.18 118.594 20.3213 118.786 20.4928L118.534 20.7854C118.382 20.6442 118.201 20.5231 118.009 20.4323C117.807 20.3414 117.585 20.291 117.343 20.291C117.101 20.291 116.869 20.3414 116.667 20.4323C116.465 20.5231 116.294 20.6542 116.142 20.8056C116.001 20.9671 115.88 21.1487 115.799 21.3505C115.719 21.5624 115.678 21.7743 115.678 22.0064C115.678 22.2385 115.719 22.4604 115.799 22.6623C115.88 22.8641 116.001 23.0457 116.142 23.2071C116.294 23.3686 116.465 23.4897 116.667 23.5805C116.869 23.6713 117.091 23.7217 117.333 23.7217C117.585 23.7217 117.807 23.6814 117.999 23.5805C118.191 23.4897 118.362 23.3787 118.524 23.2475L118.756 23.53C118.564 23.7016 118.352 23.8428 118.11 23.9336C117.898 24.0043 117.636 24.0547 117.353 24.0547Z" fill="#969696"/>
<path d="M122.419 19.9688H122.842V23.6316H124.649V23.9848H122.419V19.9688Z" fill="#969696"/>
<path d="M130.188 24.044C129.896 24.044 129.623 23.9935 129.371 23.8926C129.119 23.7917 128.897 23.6404 128.715 23.4587C128.523 23.2771 128.382 23.0551 128.271 22.8029C128.16 22.5506 128.11 22.2782 128.11 21.9855C128.11 21.703 128.17 21.4306 128.271 21.1783C128.382 20.926 128.533 20.704 128.715 20.5224C128.907 20.3307 129.119 20.1894 129.371 20.0784C129.623 19.9674 129.886 19.917 130.168 19.917C130.471 19.917 130.743 19.9674 130.995 20.0784C131.248 20.1793 131.47 20.3307 131.651 20.5123C131.833 20.694 131.984 20.9159 132.085 21.1682C132.186 21.4205 132.247 21.6929 132.247 21.9855C132.247 22.2883 132.196 22.5607 132.085 22.813C131.974 23.0652 131.833 23.2872 131.641 23.4688C131.46 23.6505 131.238 23.8018 130.985 23.9027C130.753 23.9935 130.481 24.044 130.188 24.044ZM130.178 23.6807C130.43 23.6807 130.652 23.6404 130.864 23.5496C131.066 23.4587 131.248 23.3377 131.389 23.1863C131.53 23.0349 131.641 22.8533 131.722 22.6515C131.803 22.4497 131.843 22.2277 131.843 21.9956C131.843 21.7535 131.803 21.5214 131.722 21.3196C131.641 21.1077 131.53 20.926 131.389 20.7747C131.248 20.6233 131.076 20.5022 130.864 20.4114C130.662 20.3206 130.43 20.2802 130.188 20.2802C129.946 20.2802 129.724 20.3307 129.512 20.4215C129.31 20.5123 129.139 20.6435 128.987 20.7949C128.846 20.9563 128.725 21.1379 128.644 21.3397C128.564 21.5516 128.523 21.7635 128.523 21.9956C128.523 22.2277 128.564 22.4497 128.644 22.6515C128.725 22.8533 128.836 23.0349 128.987 23.1964C129.129 23.3478 129.31 23.4688 129.512 23.5596C129.714 23.6404 129.936 23.6807 130.178 23.6807Z" fill="#969696"/>
<path d="M137.433 24.0453C137.272 24.0453 137.11 24.0251 136.959 23.9848C136.808 23.9444 136.666 23.8839 136.545 23.8132C136.424 23.7426 136.313 23.6518 136.222 23.5509C136.131 23.45 136.061 23.3289 136.02 23.1977C135.99 23.1069 135.97 22.9959 135.95 22.8849C135.93 22.7739 135.93 22.6528 135.93 22.5317V19.9688H136.353V22.562C136.353 22.6427 136.353 22.7234 136.364 22.8042C136.374 22.8849 136.384 22.9656 136.404 23.0363C136.434 23.1271 136.485 23.2179 136.545 23.2986C136.606 23.3793 136.686 23.45 136.777 23.5004C136.868 23.561 136.969 23.6013 137.08 23.6417C137.191 23.672 137.312 23.6921 137.433 23.6921C137.564 23.6921 137.675 23.672 137.796 23.6417C137.907 23.6114 138.008 23.561 138.099 23.5004C138.19 23.4399 138.271 23.3692 138.331 23.2986C138.392 23.2179 138.442 23.1372 138.462 23.0363C138.483 22.9656 138.493 22.8849 138.503 22.8042C138.513 22.7234 138.513 22.6427 138.513 22.562V19.9688H138.927V22.5317C138.927 22.6528 138.927 22.7638 138.916 22.8748C138.906 22.9858 138.886 23.0867 138.856 23.1876C138.816 23.3188 138.745 23.4298 138.654 23.5408C138.563 23.6518 138.452 23.7325 138.331 23.8132C138.21 23.8839 138.069 23.9444 137.917 23.9848C137.756 24.0251 137.595 24.0453 137.433 24.0453Z" fill="#969696"/>
<path d="M142.71 19.9688H143.851C143.921 19.9688 144.012 19.9688 144.113 19.9788C144.214 19.9889 144.315 19.999 144.416 20.0192C144.638 20.0596 144.84 20.1403 145.031 20.2412C145.223 20.3522 145.395 20.4834 145.536 20.6549C145.677 20.8264 145.788 21.0182 145.879 21.2401C145.96 21.4621 146 21.7043 146 21.9768C146 22.229 145.96 22.4611 145.889 22.673C145.808 22.8849 145.707 23.0766 145.576 23.2482C145.445 23.4197 145.284 23.561 145.102 23.682C144.92 23.8031 144.729 23.8839 144.517 23.9343C144.426 23.9646 144.325 23.9747 144.214 23.9848C144.103 23.9948 143.982 23.9948 143.861 23.9948H142.71V19.9688ZM143.83 23.6316C143.941 23.6316 144.052 23.6316 144.153 23.6215C144.254 23.6114 144.345 23.6013 144.426 23.571C144.597 23.5307 144.749 23.4601 144.89 23.3591C145.031 23.2582 145.152 23.1372 145.253 23.006C145.354 22.8647 145.435 22.7134 145.485 22.5418C145.546 22.3703 145.566 22.1786 145.566 21.9868C145.566 21.7649 145.536 21.5731 145.475 21.3915C145.415 21.2099 145.334 21.0484 145.223 20.9173C145.112 20.776 144.991 20.665 144.84 20.5742C144.688 20.4834 144.527 20.4127 144.345 20.3724C144.264 20.3522 144.184 20.3421 144.083 20.3421C143.982 20.332 143.891 20.332 143.81 20.332H143.104V23.6417H143.83V23.6316Z" fill="#969696"/>
</svg>
