<svg width="20" height="20" viewBox="0 0 20 20" fill="none" xmlns="http://www.w3.org/2000/svg">
<path d="M10 0C15.5207 0 20 4.47926 20 9.99998C20 15.5207 15.5207 20 10 20C4.47929 20 0 15.5207 0 9.99998C0 4.47926 4.47929 0 10 0Z" fill="url(#paint0_linear_3746_2349)"/>
<path d="M8.3316 10.0002C8.3316 9.08003 9.07982 8.33184 9.99994 8.33184C10.9201 8.33184 11.6683 9.08003 11.6683 10.0002C11.6683 10.9203 10.9201 11.6685 9.99994 11.6685C9.07982 11.6685 8.3316 10.9203 8.3316 10.0002ZM7.43168 10.0002C7.43168 11.4157 8.58437 12.5684 9.99994 12.5684C11.4155 12.5684 12.5682 11.4157 12.5682 10.0002C12.5682 8.58458 11.4155 7.43193 9.99994 7.43193C8.58437 7.43193 7.43168 8.58458 7.43168 10.0002ZM12.0727 7.33081C12.0727 7.45214 12.1031 7.56335 12.1738 7.66446C12.2446 7.76558 12.3356 7.83636 12.4469 7.88691C12.5581 7.93747 12.6794 7.94758 12.7906 7.91724C12.912 7.89702 13.0131 7.83635 13.094 7.75546C13.1749 7.67457 13.2355 7.56336 13.2558 7.45214C13.276 7.3308 13.2659 7.21958 13.2254 7.10836C13.185 6.99714 13.1041 6.90611 13.003 6.83534C12.9019 6.76456 12.7907 6.73425 12.6693 6.73425C12.5075 6.73425 12.3559 6.7949 12.2446 6.90612C12.1334 7.01735 12.0727 7.16903 12.0727 7.33081ZM7.9777 14.075C7.49236 14.0548 7.22945 13.9739 7.04745 13.9031C6.81489 13.8121 6.64302 13.7009 6.47113 13.529C6.29924 13.3571 6.18802 13.1852 6.09702 12.9526C6.02624 12.7807 5.94534 12.5077 5.92512 12.0224C5.9049 11.4966 5.89479 11.3348 5.89479 10.0002C5.89479 8.66547 5.9049 8.50369 5.92512 7.97791C5.94534 7.49257 6.02624 7.2297 6.09702 7.04769C6.18802 6.81514 6.29924 6.64324 6.47113 6.47135C6.64302 6.29946 6.81489 6.18824 7.04745 6.09724C7.21934 6.02646 7.49236 5.94555 7.9777 5.92533C8.50348 5.90511 8.66526 5.895 9.99994 5.895C11.3346 5.895 11.4964 5.90511 12.0222 5.92533C12.5075 5.94555 12.7704 6.02646 12.9524 6.09724C13.185 6.18824 13.3569 6.29946 13.5287 6.47135C13.7006 6.64324 13.8119 6.81514 13.9029 7.04769C13.9736 7.21959 14.0545 7.49257 14.0748 7.97791C14.095 8.50369 14.1051 8.66547 14.1051 10.0002C14.1051 11.3348 14.1051 11.4966 14.0748 12.0224C14.0545 12.5077 13.9736 12.7807 13.9029 12.9526C13.8119 13.1852 13.7006 13.3571 13.5287 13.529C13.3569 13.7009 13.185 13.8121 12.9524 13.9031C12.7805 13.9739 12.5075 14.0548 12.0222 14.075C11.4964 14.0952 11.3346 14.1053 9.99994 14.1053C8.66526 14.1053 8.50348 14.1053 7.9777 14.075ZM7.93724 5.02545C7.40135 5.04567 7.03736 5.13665 6.72391 5.25799C6.39024 5.38943 6.11724 5.56133 5.83412 5.83434C5.55101 6.11745 5.38922 6.39046 5.25777 6.72413C5.13644 7.03758 5.04543 7.40159 5.02521 7.93749C5.00498 8.47338 4.99487 8.64525 4.99487 10.0002C4.99487 11.3551 5.00498 11.5269 5.02521 12.0628C5.04543 12.5987 5.13644 12.9627 5.25777 13.2762C5.38922 13.6099 5.56112 13.8829 5.83412 14.166C6.11724 14.439 6.39024 14.6109 6.72391 14.7423C7.04747 14.8637 7.40135 14.9546 7.93724 14.9749C8.47314 14.9951 8.64504 15.0052 9.99994 15.0052C11.3548 15.0052 11.5267 14.9951 12.0626 14.9749C12.5985 14.9546 12.9625 14.8637 13.276 14.7423C13.6096 14.6109 13.8826 14.439 14.1658 14.166C14.4489 13.8829 14.6107 13.6099 14.7421 13.2762C14.8634 12.9627 14.9545 12.5987 14.9747 12.0628C14.9949 11.5269 15.005 11.3551 15.005 10.0002C15.005 8.64525 14.9949 8.47338 14.9747 7.93749C14.9545 7.40159 14.8634 7.03758 14.7421 6.72413C14.6107 6.39046 14.4388 6.11745 14.1658 5.83434C13.8826 5.55122 13.6096 5.38943 13.276 5.25799C12.9524 5.13665 12.5985 5.04567 12.0626 5.02545C11.5267 5.00523 11.3548 4.99512 9.99994 4.99512C8.64504 4.99512 8.47314 5.00523 7.93724 5.02545Z" fill="white"/>
<defs>
<linearGradient id="paint0_linear_3746_2349" x1="19.811" y1="19.8141" x2="-0.195624" y2="-0.192546" gradientUnits="userSpaceOnUse">
<stop stop-color="#FBE18A"/>
<stop offset="0.21" stop-color="#FCBB45"/>
<stop offset="0.38" stop-color="#F75274"/>
<stop offset="0.52" stop-color="#D53692"/>
<stop offset="0.74" stop-color="#8F39CE"/>
<stop offset="1" stop-color="#5B4FE9"/>
</linearGradient>
</defs>
</svg>
