<svg width="20" height="20" viewBox="0 0 20 20" fill="none" xmlns="http://www.w3.org/2000/svg">
<path d="M10 0C15.5207 0 20 4.47926 20 9.99998C20 15.5207 15.5207 20 10 20C4.47929 20 0 15.5207 0 9.99998C0 4.47926 4.47929 0 10 0Z" fill="#0073B1"/>
<path d="M7.71488 14.0048V8.59528H5.91508V14.0048H7.71488ZM6.81497 7.8673C7.44186 7.8673 7.82609 7.45272 7.82609 6.93705C7.81598 6.41127 7.43176 6.00684 6.82509 6.00684C6.2083 6.00684 5.81396 6.41127 5.81396 6.93705C5.81396 7.45272 6.20831 7.8673 6.80488 7.8673H6.81497ZM8.70579 14.0048H10.4955V10.9916C10.4955 10.8299 10.5056 10.6681 10.5561 10.5569C10.6876 10.2333 10.9808 9.89966 11.4763 9.89966C12.1234 9.89966 12.3863 10.3951 12.3863 11.1231V14.0149H14.1759V10.9209C14.1759 9.26267 13.2862 8.48407 12.1133 8.48407C11.1426 8.48407 10.7179 9.0301 10.4853 9.3941H10.4955V8.61552H8.69567C8.73611 9.11097 8.70579 14.0048 8.70579 14.0048Z" fill="white"/>
</svg>
